<svg xmlns="http://www.w3.org/2000/svg" viewBox="0 0 97 97"><linearGradient id="a" x1="0%" x2="100%" y1="0%" y2="0%"><stop offset="0%" stop-color="#40EFEB"/><stop offset="100%" stop-color="#9ED163"/></linearGradient><path class="st0" fill="#0D1617" d="M13 1h71c6.6 0 12 5.4 12 12v71c0 6.6-5.4 12-12 12H13C6.4 96 1 90.6 1 84V13C1 6.4 6.4 1 13 1z"/><path fill="url(#a)" class="st1" d="M84 97H13C5.8 97 0 91.2 0 84V13C0 5.8 5.8 0 13 0h71c7.2 0 13 5.8 13 13v71c0 7.2-5.8 13-13 13zM13 2C6.9 2 2 6.9 2 13v71c0 6.1 4.9 11 11 11h71c6.1 0 11-4.9 11-11V13c0-6.1-4.9-11-11-11H13z"/></svg>