<svg width="118" height="118" fill="none" xmlns="../../../../../external.html?link=http://www.w3.org/2000/svg"><path d="M115.557 86.82L87.914 59.183l27.635-27.64a4.246 4.246 0 00-.001-6.004L92.638 2.63a4.246 4.246 0 00-6.004 0L58.999 30.276 31.356 2.639a4.245 4.245 0 00-6.003 0L2.443 25.55a4.247 4.247 0 000 6.004l27.65 27.64L2.462 86.83a4.244 4.244 0 000 6.002l22.9 22.91a4.246 4.246 0 003.002 1.244h0a4.246 4.246 0 003.002-1.244l27.64-27.647 27.638 27.628a4.244 4.244 0 006.001 0l22.91-22.9a4.242 4.242 0 00.001-6.004z" stroke="#1ec16f" stroke-width="2"/></svg>